HIERARCHY
ROOT Hips
{
	OFFSET 0.00000 0.00000 0.00000
	CHANNELS 6 Xposition Yposition Zposition Zrotation Yrotation Xrotation 
	JOINT LHipJoint
	{
		OFFSET 0 0 0
		CHANNELS 3 Zrotation Yrotation Xrotation
		JOINT LeftHip
		{
			OFFSET 2.36090 -1.39315 1.24752
			CHANNELS 3 Zrotation Yrotation Xrotation
			JOINT LeftKnee
			{
				OFFSET 2.06810 -5.68207 0.00000
				CHANNELS 3 Zrotation Yrotation Xrotation
				JOINT LeftAnkle
				{
					OFFSET 2.46631 -6.77613 0.00000
					CHANNELS 3 Zrotation Yrotation Xrotation
					JOINT LeftToe
					{
						OFFSET 0.26031 -0.71520 1.99545
						CHANNELS 3 Zrotation Yrotation Xrotation
						End Site
						{
							OFFSET 0.00000 -0.00000 1.05957
						}
					}
				}
			}
		}
	}
	JOINT RHipJoint
	{
		OFFSET 0 0 0
		CHANNELS 3 Zrotation Yrotation Xrotation
		JOINT RightHip
		{
			OFFSET -2.25243 -1.39315 1.24752
			CHANNELS 3 Zrotation Yrotation Xrotation
			JOINT RightKnee
			{
				OFFSET -2.17343 -5.97145 0.00000
				CHANNELS 3 Zrotation Yrotation Xrotation
				JOINT RightAnkle
				{
					OFFSET -2.52372 -6.93386 0.00000
					CHANNELS 3 Zrotation Yrotation Xrotation
					JOINT RightToe
					{
						OFFSET -0.22538 -0.61923 2.11447
						CHANNELS 3 Zrotation Yrotation Xrotation
						End Site
						{
							OFFSET -0.00000 -0.00000 1.10506
						}
					}
				}
			}
		}
	}
	JOINT lowerback
	{
		OFFSET 0 0 0
		CHANNELS 3 Zrotation Yrotation Xrotation
		JOINT Chest
		{
			OFFSET 0.01594 2.13103 0.08007
			CHANNELS 3 Zrotation Yrotation Xrotation
			JOINT Chest2
			{
				OFFSET 0.01393 2.09723 0.18338
				CHANNELS 3 Zrotation Yrotation Xrotation
				JOINT lowerneck
				{
					OFFSET 0 0 0
					CHANNELS 3 Zrotation Yrotation Xrotation
					JOINT Neck
					{
						OFFSET 0.05351 1.38915 0.32494
						CHANNELS 3 Zrotation Yrotation Xrotation
						JOINT Head
						{
							OFFSET 0.00711 1.45992 -0.21666
							CHANNELS 3 Zrotation Yrotation Xrotation
							End Site
							{
								OFFSET -0.00433 1.47702 -0.11056
							}
						}
					}
				}
				JOINT LeftCollar
				{
					OFFSET 0 0 0
					CHANNELS 3 Zrotation Yrotation Xrotation
					JOINT LeftShoulder
					{
						OFFSET 2.87198 0.92249 0.11132
CHANNELS 3 Zrotation Xrotation Yrotation
						JOINT LeftElbow
						{
OFFSET 0 -5.527310 0.000000
CHANNELS 3 Zrotation Xrotation Yrotation
							JOINT LeftWrist
							{
OFFSET 0 -3.110590 0.000000
CHANNELS 3 Zrotation Xrotation Yrotation
								JOINT lhand
								{
									OFFSET 0 0 0
CHANNELS 3 Zrotation Xrotation Yrotation
									JOINT LFingers
									{
OFFSET 0 -0.419630 0.000000
CHANNELS 3 Zrotation Xrotation Yrotation
										End Site
										{
OFFSET 0 -0.338310 0.000000
										}
									}
								}
								JOINT LThumb
								{
OFFSET 0 0.000000 0.000000
CHANNELS 3 Zrotation Xrotation Yrotation
									End Site
									{
OFFSET 0 -0.343480 0.343480
									}
								}
							}
						}
					}
				}
				JOINT RightCollar
				{
					OFFSET 0 0 0
					CHANNELS 3 Zrotation Yrotation Xrotation
					JOINT RightShoulder
					{
						OFFSET -2.94710 0.68072 0.32187
CHANNELS 3 Zrotation Xrotation Yrotation
						JOINT RightElbow
						{
OFFSET 0 -5.253960 -0.000000
CHANNELS 3 Zrotation Xrotation Yrotation
							JOINT RightWrist
							{
OFFSET 0 -3.105670 0.000000
CHANNELS 3 Zrotation Xrotation Yrotation
								JOINT rhand
								{
									OFFSET 0 0 0
CHANNELS 3 Zrotation Xrotation Yrotation
									JOINT RFingers
									{
OFFSET 0 -0.498680 0.000000
CHANNELS 3 Zrotation Xrotation Yrotation
										End Site
										{
OFFSET 0 -0.402040 0.000000
										}
									}
								}
								JOINT RThumb
								{
OFFSET 0 0.000000 0.000000
CHANNELS 3 Zrotation Xrotation Yrotation
									End Site
									{
OFFSET 0 -0.408180 0.408180
									}
								}
							}
						}
					}
				}
			}
		}
	}
}
MOTION
Frames: 8
Frame Time: 0.008333333333333333
6.678669 2.154287 26.898083 -175.999376 -29.032419 123.359322 0.000000 0.000000 0.000000 12.714849 -21.129324 -84.904079 24.192249 19.573280 102.341658 0.305235 -15.551781 24.900025 9.357846 -17.032424 -57.319507 0.000000 0.000000 0.000000 0.094106 24.014284 -81.687437 -24.712916 -19.458800 103.900083 -1.876590 0.205334 26.007517 -0.348430 3.791870 -10.491900 6.082707 4.394727 8.507854 2.806967 4.676013 12.536600 -0.478745 2.135583 8.915882 8.764640 6.675544 -17.414752 -1.265366 5.762866 36.840428 -1.186087 2.740905 16.552591 0.000000 0.000000 0.000000 16.147238 48.726991 -8.086647 17.388637 -27.367297 4.264455 88.373274 -110.863703 29.276241 0.000000 0.000000 0.000000 -7.125000 0.000000 0.000000 35.941030 -49.259145 53.279213 0.000000 0.000000 0.000000 -14.317267 47.779799 41.048593 -16.832291 -26.636028 -4.011953 -74.383573 44.502538 20.150853 0.000000 0.000000 0.000000 7.125000 0.000000 0.000000 -81.781764 64.774764 53.205867
6.645772 2.173280 26.779753 -175.531008 -29.257858 122.455042 0.000000 0.000000 0.000000 12.861625 -21.786838 -84.401746 24.381081 19.533405 102.905925 0.333290 -15.470995 25.040631 9.643001 -17.204151 -58.288409 0.000000 0.000000 0.000000 0.501185 23.679120 -81.051427 -25.069451 -19.372319 104.972674 -1.794330 -0.027041 25.351884 -0.415539 4.137502 -11.463917 5.711288 4.311631 8.001927 3.101873 4.441241 12.885534 0.085492 1.957708 9.527961 8.645525 6.814304 -17.907433 -1.453793 6.143612 36.457645 -1.149576 2.883832 16.497964 0.000000 0.000000 0.000000 16.030295 49.023550 -7.317646 17.444250 -27.439682 4.290052 87.504622 -108.494662 29.179923 0.000000 0.000000 0.000000 -7.125000 0.000000 0.000000 34.943976 -47.973317 51.963411 0.000000 0.000000 0.000000 -14.800809 48.502925 41.727457 -17.317369 -27.274275 -4.231800 -74.735947 45.261778 20.383425 0.000000 0.000000 0.000000 7.125000 0.000000 0.000000 -83.785892 64.879812 55.399540
6.615361 2.187874 26.662160 -175.386516 -29.814700 121.644497 0.000000 0.000000 0.000000 12.483815 -22.553265 -83.638060 24.521534 19.502595 103.326328 0.411293 -15.233889 25.412305 9.837728 -17.317554 -58.944753 0.000000 0.000000 0.000000 0.418511 23.269165 -80.514580 -25.467968 -19.267413 106.177081 -1.720986 -0.048888 24.818087 -0.490914 4.491994 -12.465132 5.045479 4.273027 7.685072 3.175426 4.297826 13.229047 0.560679 1.806147 10.025115 8.742640 6.952349 -18.373226 -1.671491 6.440799 36.126991 -1.179990 3.014065 16.475068 0.000000 0.000000 0.000000 16.301252 49.560347 -7.257325 17.770185 -27.861784 4.441322 86.502878 -106.372024 29.026349 0.000000 0.000000 0.000000 -7.125000 0.000000 0.000000 33.880188 -46.454364 50.530221 0.000000 0.000000 0.000000 -14.899246 49.249494 42.091188 -17.787975 -27.884732 -4.449694 -75.048344 45.900490 20.540280 0.000000 0.000000 0.000000 7.125000 0.000000 0.000000 -85.438215 64.920066 57.177994
6.585022 2.198760 26.547584 -175.162571 -29.995039 121.005095 0.000000 0.000000 0.000000 12.639840 -22.977641 -83.288684 24.733641 19.453998 103.962356 0.473927 -15.164536 25.845828 9.933660 -17.372355 -59.266276 0.000000 0.000000 0.000000 0.640218 23.080941 -80.170417 -25.815341 -19.169006 107.232499 -1.666691 -0.048666 24.421248 -0.558648 4.787406 -13.303279 4.896256 4.267390 7.386625 3.214217 4.238518 13.431522 0.712648 1.752597 10.415595 8.976135 7.139654 -18.793860 -1.804190 6.722305 35.823143 -1.199393 3.166865 16.461114 0.000000 0.000000 0.000000 17.033571 50.174343 -7.729007 18.112012 -28.300376 4.602234 85.402348 -104.293197 28.858264 0.000000 0.000000 0.000000 -7.125000 0.000000 0.000000 32.775957 -44.771499 48.991732 0.000000 0.000000 0.000000 -14.696572 50.090934 42.267675 -18.238383 -28.461216 -4.662332 -75.211711 46.443287 20.791130 0.000000 0.000000 0.000000 7.125000 0.000000 0.000000 -86.769263 65.026911 58.737577
6.557026 2.205596 26.438189 -175.031214 -30.047049 120.486441 0.000000 0.000000 0.000000 12.899095 -23.172642 -83.083860 24.992144 19.391682 104.739729 0.510933 -15.203975 26.188311 9.971269 -17.393640 -59.392295 0.000000 0.000000 0.000000 0.912793 23.055007 -79.944040 -26.129010 -19.074448 108.189811 -1.626705 -0.048566 24.124838 -0.588891 4.913105 -13.660822 5.185315 4.246150 7.619746 2.937370 4.279508 13.286086 0.238698 1.828035 10.164099 9.436081 7.385021 -19.229465 -1.558496 6.817168 35.827755 -1.130533 3.315010 16.596368 0.000000 0.000000 0.000000 18.755287 51.304998 -9.032720 18.520163 -28.817975 4.797426 84.313310 -102.614880 28.642130 0.000000 0.000000 0.000000 -7.125000 0.000000 0.000000 31.769913 -43.062353 47.549693 0.000000 0.000000 0.000000 -13.889941 51.373117 42.250636 -18.654964 -28.987610 -4.862544 -75.437160 47.397379 21.085003 0.000000 0.000000 0.000000 7.125000 0.000000 0.000000 -88.460649 65.126378 60.695552
6.531474 2.207132 26.333402 -174.994162 -30.062405 120.074185 0.000000 0.000000 0.000000 13.148119 -23.224404 -82.990734 25.276240 19.318950 105.596933 0.503790 -15.326101 26.270040 10.009760 -17.415326 -59.521074 0.000000 0.000000 0.000000 1.140234 23.138972 -79.838274 -26.423995 -18.980300 109.094821 -1.595133 -0.063710 23.883538 -0.596649 4.945065 -13.751936 5.579289 4.200167 8.058072 2.494688 4.331527 13.020285 -0.487113 1.929966 9.682741 10.198405 7.733432 -19.693156 -1.246859 6.900770 35.951459 -1.081741 3.505732 16.820331 0.000000 0.000000 0.000000 20.714300 52.630251 -10.443059 19.001953 -29.421042 5.031860 83.213243 -101.031852 28.386332 0.000000 0.000000 0.000000 -7.125000 0.000000 0.000000 30.827613 -41.297425 46.152071 0.000000 0.000000 0.000000 -12.916163 52.734571 42.241320 -19.052110 -29.483247 -5.056481 -75.823214 48.680465 21.297988 0.000000 0.000000 0.000000 7.125000 0.000000 0.000000 -90.562879 65.114381 62.984931
6.510595 2.202953 26.232079 -175.039861 -30.118276 119.770875 0.000000 0.000000 0.000000 13.346827 -23.199575 -82.992153 25.563630 19.240998 106.467164 0.461908 -15.473645 26.104800 10.057757 -17.442237 -59.681217 0.000000 0.000000 0.000000 1.216901 23.307210 -79.852996 -26.712383 -18.883501 109.983580 -1.569084 -0.124288 23.666054 -0.626053 5.062938 -14.088240 4.863353 4.259043 7.979265 2.904047 4.366658 13.040662 0.342684 1.854352 9.638054 10.279741 8.008680 -19.852177 -1.451356 7.408078 35.769168 -1.067819 3.709133 16.817271 0.000000 0.000000 0.000000 20.675249 53.562478 -10.834851 19.395355 -29.906881 5.226547 82.124607 -98.893597 28.097628 0.000000 0.000000 0.000000 -7.125000 0.000000 0.000000 29.960497 -39.513913 44.817453 0.000000 0.000000 0.000000 -13.791181 53.920366 42.899397 -19.627113 -30.190202 -5.342705 -76.192428 49.524806 21.501628 0.000000 0.000000 0.000000 7.125000 0.000000 0.000000 -92.569736 65.073350 65.176849
6.492451 2.191504 26.135737 -175.088935 -30.184969 119.518432 0.000000 0.000000 0.000000 13.588231 -23.150924 -83.096237 25.839894 19.161792 107.307259 0.418859 -15.628197 25.937706 10.091012 -17.460714 -59.791985 0.000000 0.000000 0.000000 1.190822 23.513940 -79.947552 -26.989679 -18.785786 110.842590 -1.551892 -0.301925 23.477749 -0.687983 5.302708 -14.774008 3.796004 4.373455 7.849305 3.654549 4.443022 13.073690 1.731228 1.744328 9.576280 9.993694 8.189391 -19.832850 -1.745776 7.972189 35.508895 -1.028102 3.873026 16.713197 0.000000 0.000000 0.000000 20.113895 54.459352 -11.125706 19.770803 -30.365167 5.415059 81.264291 -97.046464 27.871699 0.000000 0.000000 0.000000 -7.125000 0.000000 0.000000 29.304880 -38.100166 43.771260 0.000000 0.000000 0.000000 -15.318730 55.242223 43.717975 -20.337757 -31.046888 -5.704610 -76.585189 50.285891 21.715615 0.000000 0.000000 0.000000 7.125000 0.000000 0.000000 -94.687809 64.998045 67.495702
